HIERARCHY
ROOT Hips
{
	OFFSET 0.000000 0.000000 0.000000 
	CHANNELS 6 Xposition Yposition Zposition Zrotation Yrotation Xrotation
	JOINT LeftUpLeg
	{
		OFFSET 1.363060 -1.794630 0.839290 
		CHANNELS 3 Zrotation Yrotation Xrotation
		JOINT LeftLeg
		{
			OFFSET 2.448110 -6.726130 0.000000 
			CHANNELS 3 Zrotation Yrotation Xrotation
			JOINT LeftFoot
			{
				OFFSET 2.562200 -7.039590 0.000000 
				CHANNELS 3 Zrotation Yrotation Xrotation
				JOINT LeftToeBase
				{
					OFFSET 0.157640 -0.433110 2.322550 
					CHANNELS 3 Zrotation Yrotation Xrotation
					End Site
					{
						OFFSET 0.000000 0.000000 0.000000 
					}
				}
			}
		}
	}
	JOINT RightUpLeg
	{
		OFFSET -1.305520 -1.794630 0.839290 
		CHANNELS 3 Zrotation Yrotation Xrotation
		JOINT RightLeg
		{
			OFFSET -2.542530 -6.985550 0.000000 
			CHANNELS 3 Zrotation Yrotation Xrotation
			JOINT RightFoot
			{
				OFFSET -2.568260 -7.056230 0.000000 
				CHANNELS 3 Zrotation Yrotation Xrotation
				JOINT RightToeBase
				{
					OFFSET -0.164730 -0.452590 2.363150 
					CHANNELS 3 Zrotation Yrotation Xrotation
					End Site
					{
						OFFSET 0.000000 0.000000 0.000000 
					}
				}
			}
		}
	}
	JOINT Spine
	{
		OFFSET 0.028270 2.035590 -0.193380 
		CHANNELS 3 Zrotation Yrotation Xrotation
		JOINT Spine1
		{
			OFFSET 0.056720 2.048850 -0.042750 
			CHANNELS 3 Zrotation Yrotation Xrotation
			JOINT Neck1
			{
				OFFSET -0.054170 1.746240 0.172020 
				CHANNELS 3 Zrotation Yrotation Xrotation
				JOINT Head
				{
					OFFSET 0.104070 1.761360 -0.123970 
					CHANNELS 3 Zrotation Yrotation Xrotation
					End Site
					{
						OFFSET 0.000000 0.000000 0.000000 
					}
				}
			}
			JOINT LeftArm
			{
				OFFSET 3.362410 1.200890 -0.311210 
				CHANNELS 3 Zrotation Yrotation Xrotation
				JOINT LeftForeArm
				{
					OFFSET 4.983000 -0.000000 -0.000000 
					CHANNELS 3 Zrotation Yrotation Xrotation
					JOINT LeftHand
					{
						OFFSET 3.483560 -0.000000 -0.000000 
						CHANNELS 3 Zrotation Yrotation Xrotation
						JOINT LeftHandIndex1
						{
							OFFSET 0.715260 -0.000000 -0.000000 
							CHANNELS 3 Zrotation Yrotation Xrotation
							End Site
							{
								OFFSET 0.000000 0.000000 0.000000 
							}
						}
					}
				}
			}
			JOINT RightArm
			{
				OFFSET -3.136600 1.374050 -0.404650 
				CHANNELS 3 Zrotation Yrotation Xrotation
				JOINT RightForeArm
				{
					OFFSET -5.241900 -0.000000 -0.000000 
					CHANNELS 3 Zrotation Yrotation Xrotation
					JOINT RightHand
					{
						OFFSET -3.444170 -0.000000 -0.000000 
						CHANNELS 3 Zrotation Yrotation Xrotation
						JOINT RightHandIndex1
						{
							OFFSET -0.622530 -0.000000 -0.000000 
							CHANNELS 3 Zrotation Yrotation Xrotation
							End Site
							{
								OFFSET 0.000000 0.000000 0.000000 
							}
						}
					}
				}
			}
		}
	}
}
MOTION
Frames: 16
Frame Time: 0.041667
0.636069 18.444424 9.706024 -11.842830 -2.613888 11.458204 -15.144095 -38.671981 14.661277 -3.810286 -2.205686 -1.458293 -13.374012 41.970479 -28.897381 0.467200 4.383900 12.159300 24.475461 21.751822 -4.751997 2.996897 -3.053778 9.264247 5.697664 -18.876782 -0.450684 -0.014000 0.763300 -2.097800 27.852674 6.379076 -3.850698 -11.087077 -0.326704 -14.649212 10.928288 -7.983626 42.033149 1.764400 -1.491700 12.826000 -72.862403 -12.154966 39.211990 92.210865 -57.131172 -70.473240 -1.571779 0.070439 22.585958 -7.125000 0.000000 0.000000 56.335547 38.517446 72.401537 -63.505564 50.360496 -39.170476 -0.926961 1.742065 21.704141 7.125000 0.000000 0.000000 
0.636911 18.444740 9.708129 -11.897974 -2.611231 11.469730 -15.022024 -38.471585 14.503633 -3.804020 -2.187839 -1.415845 -13.333302 41.835409 -28.682721 0.466700 4.381900 12.153600 24.515368 21.707759 -4.712016 3.003875 -3.026845 9.187484 5.700322 -18.899064 -0.405269 -0.015400 0.800500 -2.200000 28.073384 6.451696 -4.100503 -11.152069 -0.346191 -14.539572 10.722032 -7.850115 41.992189 1.715900 -1.453100 12.805500 -72.584534 -12.220528 39.539229 89.873651 -56.852376 -68.495833 -1.551787 0.094781 22.704255 -7.125000 0.000000 0.000000 56.338844 38.373305 72.396605 -63.471337 50.359428 -39.138338 -0.928394 1.742017 21.732153 7.125000 0.000000 0.000000 
0.636069 18.442425 9.710023 -11.892214 -2.628343 11.316503 -15.061560 -38.359410 14.546773 -3.803523 -2.175894 -1.362250 -13.269972 41.698712 -28.613950 0.480200 4.443900 12.328900 24.544794 21.690241 -4.539496 3.011481 -2.984278 9.100833 5.756164 -19.046560 -0.399981 -0.020300 0.920200 -2.529400 28.126293 6.309286 -3.625921 -11.186259 -0.378494 -14.640369 10.576199 -7.726866 41.956009 1.681100 -1.407800 12.803800 -72.118496 -12.278879 40.136516 87.096006 -56.465077 -66.081928 -1.501860 0.132621 22.831920 -7.125000 0.000000 0.000000 56.354814 38.414164 72.455325 -63.570629 50.380946 -39.229225 -0.932494 1.743424 21.458313 7.125000 0.000000 0.000000 
0.635438 18.439794 9.711391 -11.846376 -2.661572 11.120856 -15.186998 -38.300924 14.671897 -3.804960 -2.176032 -1.330167 -13.252856 41.653248 -28.567165 0.478900 4.438000 12.312400 24.526760 21.682637 -4.376128 3.013684 -2.958141 9.067849 5.796537 -19.138742 -0.405540 -0.019800 0.907700 -2.494900 28.163754 6.090498 -2.864219 -11.168559 -0.408092 -14.827418 10.294395 -7.583548 42.012239 1.611000 -1.368800 12.855000 -71.676224 -12.229133 40.812509 84.949906 -56.127995 -64.176762 -1.437324 0.157358 22.762672 -7.125000 0.000000 0.000000 56.334051 38.511742 72.469396 -63.629940 50.389063 -39.275857 -0.933398 1.745045 21.261679 7.125000 0.000000 0.000000 
0.635438 18.436953 9.711812 -11.807945 -2.670396 10.930025 -15.178874 -38.018293 14.592591 -3.796940 -2.169684 -1.285577 -13.236690 41.512195 -28.169646 0.459000 4.345800 12.051700 24.499755 21.629951 -4.279671 3.010838 -2.953840 9.092018 5.803733 -19.135311 -0.432201 -0.018600 0.880800 -2.420800 28.272804 5.836293 -2.076277 -11.137643 -0.453465 -15.053546 10.052302 -7.422569 41.968224 1.556400 -1.320100 12.879900 -71.391098 -11.978963 41.217678 84.138760 -56.006669 -63.450292 -1.401898 0.164965 22.553683 -7.125000 0.000000 0.000000 56.342649 38.614896 72.485439 -63.648485 50.388077 -39.281810 -0.932678 1.744951 21.223594 7.125000 0.000000 0.000000 
0.635227 18.434112 9.712233 -11.799961 -2.665887 10.793453 -15.092373 -37.681952 14.430173 -3.787013 -2.164301 -1.247030 -13.216520 41.349592 -27.720512 0.438500 4.249400 11.779300 24.488939 21.526667 -4.275412 3.003931 -2.968808 9.153187 5.789834 -19.083691 -0.423727 -0.023300 0.986300 -2.711100 28.455954 5.604293 -1.427810 -11.140333 -0.507481 -15.243972 10.126013 -7.315879 41.626063 1.591500 -1.268100 12.803000 -71.359117 -11.603691 41.170299 84.722696 -56.129319 -63.982491 -1.410634 0.159383 22.251185 -7.125000 0.000000 0.000000 56.346798 38.690259 72.509082 -63.699663 50.395756 -39.318573 -0.931198 1.742894 21.272358 7.125000 0.000000 0.000000 
0.634806 18.432113 9.712653 -11.862579 -2.666427 10.746781 -14.977834 -37.534272 14.341479 -3.783444 -2.171337 -1.242494 -13.208898 41.283190 -27.561583 0.428900 4.202800 11.647800 24.534329 21.446550 -4.363409 2.991040 -3.012959 9.269408 5.759853 -19.003712 -0.389600 -0.028100 1.082100 -2.974700 28.733841 5.510137 -1.071974 -11.231423 -0.538855 -15.297443 10.460661 -7.318673 41.003471 1.688300 -1.251400 12.619100 -71.585874 -11.379976 40.761745 86.227448 -56.383747 -65.325332 -1.448658 0.136741 21.830718 -7.125000 0.000000 0.000000 56.250528 38.640412 72.434122 -63.857495 50.433429 -39.458541 -0.929209 1.739382 21.302983 7.125000 0.000000 0.000000 
0.634491 18.431903 9.713074 -11.867711 -2.661839 10.738325 -14.943277 -37.514272 14.299927 -3.782270 -2.174420 -1.241870 -13.221386 41.291196 -27.519448 0.425300 4.185400 11.599000 24.527040 21.410633 -4.480290 2.976246 -3.070922 9.417220 5.739622 -18.942951 -0.401063 -0.031600 1.147900 -3.155900 28.789076 5.515409 -0.902913 -11.298623 -0.522750 -15.281928 10.732488 -7.397736 40.453955 1.745500 -1.280800 12.428000 -71.921172 -11.453047 40.121935 88.190577 -56.672696 -67.032537 -1.505208 0.082860 21.327012 -7.125000 0.000000 0.000000 56.072052 38.473725 72.246396 -63.934619 50.465798 -39.528869 -0.923735 1.737577 21.346837 7.125000 0.000000 0.000000 
0.634070 18.433165 9.714232 -11.733770 -2.636721 10.784512 -15.049229 -37.519279 14.263629 -3.779825 -2.159451 -1.229468 -13.246038 41.329165 -27.432041 0.423200 4.175100 11.569700 24.405094 21.380487 -4.585874 2.964970 -3.121891 9.542027 5.731849 -18.908826 -0.432188 -0.034100 1.192800 -3.279400 28.373297 5.652373 -1.243346 -11.267292 -0.460011 -15.206610 10.931384 -7.546709 40.275926 1.767600 -1.338400 12.316900 -72.242174 -11.674415 39.307784 90.314824 -56.945386 -68.828797 -1.565850 0.002895 21.093057 -7.125000 0.000000 0.000000 55.974984 38.180703 72.062458 -63.696317 50.449231 -39.319027 -0.913621 1.738488 21.583188 7.125000 0.000000 0.000000 
0.632597 18.434323 9.715915 -11.663587 -2.553467 10.877729 -15.098010 -37.543847 14.231728 -3.775336 -2.140277 -1.221881 -13.267750 41.354512 -27.313543 0.415200 4.136300 11.460300 24.368302 21.355460 -4.662523 2.956971 -3.166797 9.640763 5.722190 -18.883923 -0.477163 -0.031500 1.146400 -3.151800 28.028311 5.898429 -2.051804 -11.253116 -0.406868 -15.037758 10.913513 -7.650474 40.356301 1.739700 -1.393400 12.281800 -72.650981 -12.060420 38.057877 92.172553 -57.129570 -70.382156 -1.587503 -0.000095 20.906776 -7.125000 0.000000 0.000000 55.946875 37.821099 72.006002 -63.589955 50.469118 -39.245973 -0.912495 1.740584 21.674551 7.125000 0.000000 0.000000 
0.630282 18.434849 9.716968 -11.699776 -2.376462 10.926651 -15.068620 -37.614690 14.210798 -3.769030 -2.130361 -1.218072 -13.309949 41.388943 -27.131767 0.389900 4.009700 11.104100 24.402401 21.313941 -4.733315 2.951418 -3.204424 9.715998 5.726100 -18.904531 -0.524563 -0.027200 1.065600 -2.929400 28.258982 6.019539 -2.541437 -11.258863 -0.415647 -14.892351 10.482683 -7.586979 40.543164 1.633000 -1.423200 12.327700 -73.177737 -12.572043 36.591401 93.694806 -57.226140 -71.613645 -1.607880 -0.000981 21.428300 -7.125000 0.000000 0.000000 55.849036 37.603497 72.045784 -63.637746 50.494028 -39.294923 -0.914970 1.744050 21.701903 7.125000 0.000000 0.000000 
0.627967 18.435270 9.716547 -11.738626 -2.137148 10.925519 -15.041383 -37.762920 14.207656 -3.763163 -2.123552 -1.210992 -13.352201 41.428064 -26.990870 0.368300 3.898300 10.790800 24.419527 21.270038 -4.793264 2.949176 -3.230141 9.763066 5.760246 -19.002272 -0.596819 -0.025900 1.039600 -2.857900 28.649022 6.001099 -2.659275 -11.247809 -0.458967 -14.840474 10.124356 -7.524468 40.748536 1.560300 -1.444600 12.423400 -73.589284 -13.078985 35.093681 95.234494 -57.291070 -72.875310 -1.589884 -0.020747 21.724031 -7.125000 0.000000 0.000000 55.704045 37.562037 72.053575 -63.410642 50.432825 -39.070112 -0.912136 1.745830 22.035448 7.125000 0.000000 0.000000 
0.625757 18.435480 9.716441 -11.771612 -1.936642 10.902465 -14.998542 -37.869321 14.221945 -3.758320 -2.125031 -1.230497 -13.403415 41.490164 -26.863200 0.347100 3.785600 10.474400 24.472235 21.303244 -4.772713 2.949545 -3.245953 9.801381 5.795352 -19.088827 -0.765852 -0.017400 0.851600 -2.340600 28.790101 5.980612 -2.745266 -11.243301 -0.490109 -14.846366 10.058759 -7.537745 40.864850 1.552200 -1.459100 12.489500 -73.786785 -13.446601 33.906913 96.774133 -57.338141 -74.161805 -1.533818 -0.029480 21.831419 -7.125000 0.000000 0.000000 55.620813 37.554665 72.069066 -63.297201 50.405906 -38.962411 -0.912362 1.744284 22.228619 7.125000 0.000000 0.000000 
0.623968 18.436322 9.718441 -11.776368 -1.816199 10.903416 -14.972563 -37.907095 14.240726 -3.753931 -2.135954 -1.285371 -13.482735 41.602117 -26.696018 0.320400 3.638600 10.062000 24.520803 21.397593 -4.706394 2.952365 -3.247255 9.809175 5.823076 -19.153451 -0.923576 -0.007700 0.568400 -1.561800 28.674640 5.987765 -2.913229 -11.229324 -0.504291 -14.855789 10.032595 -7.519713 40.910932 1.545900 -1.449700 12.513800 -73.830854 -13.575363 33.182858 98.249945 -57.371994 -75.393978 -1.466103 -0.014152 22.010778 -7.125000 0.000000 0.000000 55.647572 37.512303 72.151214 -63.564354 50.482898 -39.226981 -0.920157 1.741176 21.926384 7.125000 0.000000 0.000000 
0.623548 18.436848 9.721913 -11.702701 -1.779415 10.968860 -15.134877 -38.166060 14.438227 -3.761764 -2.153950 -1.354158 -13.514043 41.741428 -26.974464 0.334100 3.714400 10.274500 24.484442 21.459912 -4.686875 2.955991 -3.239596 9.783900 5.848083 -19.219136 -0.951540 -0.005900 0.496800 -1.365100 28.258377 6.049401 -3.250152 -11.174549 -0.486215 -14.818340 9.953984 -7.493141 40.996875 1.513800 -1.438800 12.528500 -73.758734 -13.440428 33.031459 99.542428 -57.399274 -76.453215 -1.415783 0.000786 21.999492 -7.125000 0.000000 0.000000 55.763869 37.423099 72.214597 -63.954518 50.603162 -39.627850 -0.936065 1.735813 21.425779 7.125000 0.000000 0.000000 
0.624074 18.436533 9.725491 -11.627450 -1.794982 11.027699 -15.418419 -38.593821 14.802859 -3.779950 -2.182703 -1.425812 -13.509107 41.903461 -27.619553 0.371700 3.915800 10.839800 24.419701 21.486710 -4.691714 2.958002 -3.233488 9.762452 5.857790 -19.243896 -0.930794 -0.006800 0.532500 -1.463300 27.958296 6.099890 -3.461816 -11.143082 -0.461516 -14.762996 10.097484 -7.487336 40.827470 1.556100 -1.425500 12.467000 -73.750958 -13.134320 33.355624 100.686347 -57.415839 -77.366066 -1.388688 0.005933 21.791787 -7.125000 0.000000 0.000000 55.897464 37.381869 72.223043 -64.207911 50.680169 -39.895160 -0.948967 1.730228 21.185581 7.125000 0.000000 0.000000 
